<svg width="325" height="325" viewBox="0 0 325 325" fill="none" xmlns="http://www.w3.org/2000/svg">
<path fill-rule="evenodd" clip-rule="evenodd" d="M325 200C255.964 200 200 255.964 200 325H206C206 259.278 259.278 206 325 206V200Z" fill="#81CFF4"/>
<path fill-rule="evenodd" clip-rule="evenodd" d="M325 175C242.157 175 175 242.157 175 325H181C181 245.471 245.471 181 325 181V175Z" fill="#17A2CC"/>
<path fill-rule="evenodd" clip-rule="evenodd" d="M325 150C228.35 150 150 228.35 150 325H156C156 231.664 231.664 156 325 156V150Z" fill="#81CFF4"/>
<path fill-rule="evenodd" clip-rule="evenodd" d="M325 125C214.543 125 125 214.543 125 325H131C131 217.857 217.857 131 325 131V125Z" fill="#17A2CC"/>
<path fill-rule="evenodd" clip-rule="evenodd" d="M325 100C200.736 100 100 200.736 100 325H106C106 204.05 204.05 106 325 106V100Z" fill="#17A2CC"/>
<path fill-rule="evenodd" clip-rule="evenodd" d="M325 75C186.929 75 75 186.929 75 325H81C81 190.243 190.243 81 325 81V75Z" fill="#034260"/>
<path fill-rule="evenodd" clip-rule="evenodd" d="M325 50C173.122 50 50 173.122 50 325H56C56 176.435 176.435 56 325 56V50Z" fill="#81CFF4"/>
<path fill-rule="evenodd" clip-rule="evenodd" d="M325 25C159.315 25 25 159.315 25 325H31C31 162.628 162.628 31 325 31V25Z" fill="#F6FB10"/>
<path fill-rule="evenodd" clip-rule="evenodd" d="M325 0C145.507 0 0 145.507 0 325H6C6 148.821 148.821 6 325 6V0Z" fill="#81CFF4"/>
</svg>
